<svg xmlns="http://www.w3.org/2000/svg" version="1.1" xmlns:xlink="http://www.w3.org/1999/xlink" xmlns:svgjs="http://svgjs.com/svgjs" width="468" height="542"><svg width="468" height="542" viewBox="0 0 468 542" fill="none" xmlns="http://www.w3.org/2000/svg">
<path d="M396.029 251.034C407.741 184.767 419.743 118.778 440.947 54.885C433.728 53.77 426.89 51.973 420.032 51.818C402.246 51.394 384.44 51.838 366.644 51.663C347.609 51.477 328.573 51.208 309.558 50.547C286.257 49.742 263.173 46.406 240.233 41.758C239.758 41.665 239.283 41.613 238.529 41.51C235.627 50.599 232.642 59.616 229.863 68.705C218.006 107.447 208.711 146.974 202.41 187.421C195.872 229.396 193.145 271.691 194.385 314.338C194.912 332.392 194.282 350.353 191.338 368.191C189.582 378.87 189.014 389.819 187 400.426C179.181 441.596 163.306 478.097 137.495 508.297C119.09 529.832 96.305 540.46 70.102 541.555C47.937 542.485 30.636 532.125 17.385 511.953C7.59398 497.06 2.22298 480.266 0.817981 461.829C-4.05702 397.648 13.016 341.337 47.648 291.532C56.551 278.725 66.662 267.25 78.819 258.388C95.593 246.159 113.915 240.458 133.715 241.171C143.476 241.522 152.73 244.383 161.334 249.826C161.974 250.229 162.625 250.601 163.492 251.127C164.825 244.207 166.136 237.442 167.438 230.687C176.165 185.428 185.44 140.333 198.32 96.344C202.896 80.707 207.946 65.234 213.193 49.876C217.128 38.38 221.745 27.205 226.021 15.864C226.631 14.243 227.312 12.549 227.519 10.824C228.583 1.56902 233.974 -1.49799 242.03 0.661014C244.241 1.24901 246.41 2.13801 248.537 3.07701C264.164 9.95601 280.483 12.828 297.04 14.501C316.778 16.484 336.536 16.246 356.285 14.966C368.328 14.191 380.34 12.652 392.393 11.97C410.819 10.927 429.256 10.256 447.702 9.60501C450.78 9.49101 453.899 10.07 456.957 10.607C463.309 11.733 466.965 16.577 467.512 23.972C468.08 31.708 466.511 39.114 464.724 46.406C457.06 77.804 449.53 109.255 441.361 140.478C433.81 169.325 428.305 198.607 425.785 228.559C424.153 247.894 423.327 267.312 422.026 286.678C421.251 298.122 423.244 309.308 424.029 320.607C428.481 385.13 414.837 443.744 380.061 495.118C365.911 516.023 347.877 530.989 325.299 537.868C312.523 541.762 299.509 542.949 286.464 540.181C269.628 536.618 257.523 524.916 247.907 509.278C237.703 492.66 233.003 473.965 232.28 453.814C230.783 412.035 237.889 372.415 254.765 335.243C263.741 315.495 274.875 297.451 287.837 280.925C303.217 261.311 321.86 248.08 344.624 243.061C358.412 240.024 372.077 239.983 385.421 245.663C388.923 247.151 392.269 249.144 396.018 251.076L396.029 251.034ZM64.349 451.222C64.493 451.222 64.638 451.242 64.772 451.242C65.01 456.779 65.32 462.304 65.475 467.84C65.784 479.171 67.52 490.191 70.505 500.974C71.341 504.001 73.087 505.601 75.566 505.199C79.604 504.548 83.684 503.99 87.598 502.782C99.91 498.991 109.092 490.047 116.518 478.53C141.234 440.181 151.47 396.119 154.031 349.352C154.744 336.317 153.505 323.086 152.616 310C151.966 300.498 149.487 291.419 144.932 283.28C141.761 277.61 137.32 274.625 131.36 275.11C125.979 275.544 120.97 277.424 116.353 280.605C107.997 286.358 102.007 294.776 96.904 304.03C86.008 323.788 79.17 345.54 73.841 367.964C69.399 386.668 66.972 405.776 65.609 425.07C64.999 433.756 64.762 442.484 64.359 451.201L64.349 451.222ZM386.578 338.662C385.927 328.56 385.473 318.428 384.554 308.358C383.779 299.899 381.517 291.863 377.758 284.457C374.628 278.302 370.156 274.728 363.742 275.12C358.949 275.42 354.415 276.938 350.18 279.531C340.854 285.232 334.295 294.249 328.904 304.309C315.301 329.696 307.317 357.573 302.277 386.648C299.323 403.711 297.701 420.97 297.164 438.342C296.513 459.133 297.019 479.821 302.37 499.962C303.423 503.939 305.055 505.395 308.608 505.157C316.489 504.631 323.874 502.162 330.639 497.473C341.701 489.799 349.736 478.737 356.202 466.157C376.384 426.867 386.124 384.283 386.578 338.651V338.662Z" fill="black"></path>
</svg><style>@media (prefers-color-scheme: light) { :root { filter: none; } }
@media (prefers-color-scheme: dark) { :root { filter: none; } }
</style></svg>