<?xml version="1.0" standalone="no"?>
<!DOCTYPE svg PUBLIC "-//W3C//DTD SVG 20010904//EN"
 "http://www.w3.org/TR/2001/REC-SVG-20010904/DTD/svg10.dtd">
<svg version="1.0" xmlns="http://www.w3.org/2000/svg"
 width="1084.000000pt" height="1084.000000pt" viewBox="0 0 1084.000000 1084.000000"
 preserveAspectRatio="xMidYMid meet">
<metadata>
Created by potrace 1.14, written by Peter Selinger 2001-2017
</metadata>
<g transform="translate(0.000000,1084.000000) scale(0.100000,-0.100000)"
fill="#000000" stroke="none">
<path d="M5416 10828 c-16 -6 -38 -18 -48 -27 -28 -23 -64 -98 -73 -151 -4
-25 -9 -52 -10 -60 -2 -8 -57 -154 -123 -325 -160 -413 -341 -952 -452 -1339
-114 -400 -168 -601 -224 -841 -20 -82 -41 -166 -46 -185 -6 -19 -12 -46 -15
-60 -2 -14 -16 -74 -30 -135 -14 -60 -30 -130 -35 -155 -5 -25 -14 -60 -19
-78 -5 -18 -10 -35 -10 -37 -1 -20 -32 -173 -71 -345 -5 -25 -12 -56 -14 -70
-2 -14 -7 -36 -10 -50 -3 -14 -8 -36 -10 -50 -3 -14 -11 -56 -19 -95 -9 -38
-18 -83 -21 -100 -2 -16 -7 -41 -10 -55 -8 -36 -25 -121 -30 -150 -2 -14 -7
-36 -10 -50 -3 -14 -8 -36 -10 -50 -3 -14 -14 -74 -26 -135 -12 -60 -24 -121
-26 -135 -3 -14 -14 -70 -25 -125 -11 -55 -22 -114 -24 -131 -3 -17 -8 -40
-12 -52 -8 -21 -9 -21 -68 15 -91 55 -206 102 -319 130 -86 22 -125 26 -261
27 -230 1 -357 -19 -557 -85 -318 -106 -652 -343 -898 -638 -25 -29 -51 -59
-57 -67 -42 -43 -280 -387 -353 -510 -119 -200 -266 -477 -320 -604 -12 -30
-30 -71 -38 -90 -9 -19 -16 -37 -17 -40 -1 -3 -7 -18 -14 -35 -66 -158 -153
-418 -205 -615 -38 -145 -101 -450 -111 -540 -3 -30 -8 -66 -10 -80 -46 -283
-55 -879 -19 -1210 8 -75 53 -296 70 -345 7 -22 14 -46 14 -53 0 -35 154 -382
173 -390 4 -2 7 -8 7 -13 0 -13 66 -115 134 -204 65 -87 177 -203 241 -250 22
-17 48 -37 58 -46 36 -32 214 -118 297 -142 128 -38 210 -49 356 -46 337 5
661 101 934 277 223 143 411 330 626 622 296 401 524 871 679 1400 31 108 79
295 90 350 3 14 12 61 21 105 9 44 18 89 20 100 10 64 23 157 29 205 3 30 8
66 10 80 2 14 6 52 10 84 3 33 8 74 10 93 3 18 7 50 10 70 3 21 10 65 15 98 5
33 12 80 15 105 3 25 8 61 10 80 3 19 7 60 10 90 3 30 8 75 11 100 4 25 7 394
9 820 1 426 5 813 8 860 3 47 9 137 12 200 3 63 8 135 10 160 2 25 7 83 10
130 3 47 8 105 10 130 3 25 7 70 10 100 8 85 26 252 30 280 4 30 14 109 19
165 3 22 7 54 10 70 3 17 10 68 16 115 6 47 13 96 15 110 2 14 6 39 9 55 35
219 50 311 71 420 9 50 18 101 20 115 5 36 68 342 105 510 18 80 34 152 35
160 2 8 15 65 30 125 15 61 29 117 31 125 51 210 125 482 205 756 63 216 223
722 231 729 3 3 62 -6 131 -20 70 -13 155 -29 189 -35 35 -5 74 -12 88 -15 48
-9 215 -34 265 -40 28 -4 61 -8 75 -10 14 -2 52 -7 85 -10 33 -3 71 -8 85 -10
22 -4 70 -8 220 -20 261 -22 916 -36 1895 -40 640 -4 701 -5 770 -19 17 -4 76
-14 133 -24 80 -13 102 -20 102 -33 0 -9 -18 -72 -41 -140 -22 -68 -51 -160
-64 -204 -77 -261 -99 -339 -121 -420 -33 -120 -85 -316 -89 -335 -2 -8 -13
-51 -24 -96 -12 -45 -24 -90 -26 -100 -2 -10 -20 -84 -39 -164 -29 -122 -57
-247 -136 -600 -5 -25 -12 -57 -15 -72 -6 -32 -6 -32 -45 -223 -16 -77 -50
-248 -75 -380 -25 -132 -50 -262 -56 -290 -5 -27 -11 -64 -13 -82 -3 -18 -7
-40 -10 -50 -3 -10 -7 -34 -10 -53 -5 -33 -9 -50 -21 -110 -3 -14 -7 -43 -11
-65 -3 -22 -7 -47 -9 -55 -2 -8 -7 -31 -10 -50 -3 -19 -10 -57 -15 -85 -5 -27
-12 -63 -15 -80 -2 -16 -9 -55 -14 -85 -6 -30 -13 -73 -16 -95 -6 -34 -11 -62
-14 -73 -1 -1 -49 22 -108 52 -150 75 -211 99 -283 112 -8 1 -42 9 -75 16 -67
14 -316 17 -410 5 -33 -4 -97 -17 -142 -27 -46 -11 -93 -21 -105 -24 -46 -9
-217 -75 -313 -122 -92 -45 -276 -160 -339 -214 -189 -159 -362 -348 -505
-550 -450 -635 -725 -1243 -880 -1945 -20 -93 -48 -239 -55 -291 -38 -290 -41
-318 -53 -499 -10 -140 -10 -584 0 -695 38 -449 168 -811 409 -1138 192 -260
436 -425 695 -471 32 -6 74 -13 93 -16 74 -13 308 -8 395 9 11 2 40 7 65 11
135 21 315 82 469 158 281 139 475 302 726 608 43 53 206 301 275 419 66 113
218 407 268 520 29 66 112 273 112 281 0 4 8 24 17 45 9 22 17 41 18 44 1 3
17 55 37 115 32 97 72 234 83 283 2 9 14 55 25 102 28 113 62 270 74 350 3 19
7 44 10 55 2 11 7 47 11 80 4 33 9 69 11 80 7 54 13 106 19 170 4 39 8 81 10
94 24 146 24 916 1 1061 -3 14 -7 61 -11 104 -4 43 -9 88 -11 100 -15 78 -20
312 -9 471 9 140 11 180 19 335 3 63 8 138 11 165 2 28 7 104 11 170 3 66 8
136 9 155 2 19 7 80 10 135 3 55 8 111 10 125 2 14 7 59 10 100 3 41 8 91 10
110 2 19 7 60 10 90 8 72 14 122 25 195 5 33 12 80 15 105 3 25 8 56 10 70 3
14 7 41 10 60 8 52 24 141 30 175 3 17 8 44 11 60 3 17 19 95 35 175 16 80 31
154 34 165 11 55 78 334 106 439 17 66 32 127 34 135 2 9 11 43 20 76 9 33 18
67 20 75 2 8 42 170 90 360 48 190 89 353 91 363 2 9 6 25 8 35 5 22 89 366
122 497 13 55 26 109 28 120 2 11 14 58 26 105 25 99 22 88 49 208 12 51 24
110 26 130 3 20 8 48 11 61 11 50 4 227 -11 276 -35 114 -102 167 -237 190
-93 15 -237 13 -743 -10 -55 -3 -158 -7 -230 -10 -227 -10 -426 -23 -485 -30
-19 -2 -69 -7 -110 -10 -41 -3 -91 -8 -110 -10 -19 -2 -69 -7 -110 -10 -41 -3
-95 -8 -120 -10 -285 -26 -980 -26 -1195 0 -16 2 -59 6 -95 9 -126 13 -220 27
-380 58 -196 37 -318 74 -532 159 -156 63 -251 80 -312 57z m-1902 -5522 c75
-44 131 -124 189 -271 56 -139 79 -251 92 -435 4 -52 8 -111 10 -130 23 -241
23 -615 0 -845 -1 -16 -6 -61 -9 -100 -8 -83 -15 -151 -21 -185 -2 -14 -7 -50
-10 -80 -8 -71 -29 -197 -59 -360 -49 -262 -173 -685 -270 -923 -109 -266
-250 -534 -387 -737 -73 -109 -90 -130 -169 -210 -152 -154 -304 -235 -519
-276 -175 -34 -189 -25 -231 146 -26 103 -47 214 -55 280 -3 30 -8 66 -10 80
-12 80 -29 455 -29 655 0 148 10 382 19 465 2 19 7 73 10 120 3 47 8 101 10
120 3 19 7 53 9 75 14 122 18 152 21 175 2 14 7 45 10 70 6 44 19 124 30 185
3 17 8 46 11 65 40 244 171 733 267 997 215 590 454 950 720 1085 139 70 286
84 371 34z m4622 12 c16 -7 35 -18 42 -25 7 -7 21 -18 32 -26 66 -46 185 -321
204 -471 3 -20 7 -51 10 -68 8 -48 20 -195 33 -393 13 -214 6 -765 -12 -795
-1 -3 -6 -41 -10 -85 -8 -97 -13 -142 -20 -175 -3 -14 -7 -47 -11 -74 -5 -51
-41 -244 -69 -376 -74 -352 -251 -872 -396 -1163 -141 -283 -214 -402 -329
-538 -193 -226 -394 -349 -629 -384 -97 -14 -141 -7 -164 29 -15 22 -42 105
-52 157 -3 13 -11 58 -20 99 -22 113 -31 171 -39 255 -3 33 -9 85 -12 115 -22
216 -16 798 11 1065 2 22 7 69 10 105 7 82 12 126 31 270 9 63 17 126 19 140
10 75 17 119 25 150 5 19 11 53 14 75 3 22 18 103 35 180 163 768 472 1486
750 1743 61 56 153 123 212 152 107 55 259 72 335 38z"/>
</g>
</svg>
